<?xml version="1.0" encoding="UTF-8"?>
<!DOCTYPE svg PUBLIC "-//W3C//DTD SVG 1.1//EN" "http://www.w3.org/Graphics/SVG/1.1/DTD/svg11.dtd">
<svg xmlns="http://www.w3.org/2000/svg" version="1.1" width="1173px" height="793px" style="shape-rendering:geometricPrecision; text-rendering:geometricPrecision; image-rendering:optimizeQuality; fill-rule:evenodd; clip-rule:evenodd" xmlns:xlink="http://www.w3.org/1999/xlink">
<g><path style="opacity:1" fill="#005f9b" d="M 362.5,-0.5 C 506.167,-0.5 649.833,-0.5 793.5,-0.5C 813.292,1.48807 831.292,8.3214 847.5,20C 850.704,23.0359 853.704,26.2026 856.5,29.5C 856.427,31.0269 857.094,32.0269 858.5,32.5C 859.167,32.5 859.5,32.8333 859.5,33.5C 859.427,35.0269 860.094,36.0269 861.5,36.5C 861.427,38.0269 862.094,39.0269 863.5,39.5C 868.676,47.6933 871.676,56.6933 872.5,66.5C 872.5,67.5 872.5,68.5 872.5,69.5C 873.5,69.5 874.5,69.5 875.5,69.5C 916.001,79.695 948.334,101.695 972.5,135.5C 972.427,137.027 973.094,138.027 974.5,138.5C 977.916,142.323 980.582,146.657 982.5,151.5C 982.427,153.027 983.094,154.027 984.5,154.5C 995.948,175.277 1002.28,197.611 1003.5,221.5C 1003.5,350.833 1003.5,480.167 1003.5,609.5C 984.833,609.5 966.167,609.5 947.5,609.5C 947.833,481.999 947.5,354.666 946.5,227.5C 943.102,193.697 928.435,166.03 902.5,144.5C 902.027,143.094 901.027,142.427 899.5,142.5C 897.205,141.525 895.205,140.192 893.5,138.5C 893.027,137.094 892.027,136.427 890.5,136.5C 875.178,128.338 858.845,123.505 841.5,122C 670.5,121.333 499.5,121.333 328.5,122C 277.947,128.226 244.447,155.393 228,203.5C 225.911,211.034 224.578,218.7 224,226.5C 223.5,354.166 223.333,481.833 223.5,609.5C 204.5,609.5 185.5,609.5 166.5,609.5C 166.5,481.167 166.5,352.833 166.5,224.5C 167.386,197.519 174.719,172.519 188.5,149.5C 189.906,149.027 190.573,148.027 190.5,146.5C 191.11,144.566 192.11,142.899 193.5,141.5C 194.906,141.027 195.573,140.027 195.5,138.5C 196.026,136.77 197.026,135.436 198.5,134.5C 199.906,134.027 200.573,133.027 200.5,131.5C 201.781,128.553 203.781,126.219 206.5,124.5C 207.906,124.027 208.573,123.027 208.5,121.5C 212.167,117.167 216.167,113.167 220.5,109.5C 223.089,108.581 225.089,106.914 226.5,104.5C 246.917,86.4569 270.584,74.4569 297.5,68.5C 298.05,57.1847 301.384,46.8513 307.5,37.5C 308.906,37.0269 309.573,36.0269 309.5,34.5C 310.906,34.0269 311.573,33.0269 311.5,31.5C 324.151,14.0024 341.151,3.33576 362.5,-0.5 Z"/></g>
<g><path style="opacity:0.812" fill="#0d2438" d="M 856.5,29.5 C 857.906,29.9731 858.573,30.9731 858.5,32.5C 857.094,32.0269 856.427,31.0269 856.5,29.5 Z"/></g>
<g><path style="opacity:0.686" fill="#0c283f" d="M 311.5,31.5 C 311.573,33.0269 310.906,34.0269 309.5,34.5C 309.427,32.9731 310.094,31.9731 311.5,31.5 Z"/></g>
<g><path style="opacity:0.561" fill="#091f30" d="M 859.5,33.5 C 860.906,33.9731 861.573,34.9731 861.5,36.5C 860.094,36.0269 859.427,35.0269 859.5,33.5 Z"/></g>
<g><path style="opacity:0.561" fill="#091f31" d="M 309.5,34.5 C 309.573,36.0269 308.906,37.0269 307.5,37.5C 307.427,35.9731 308.094,34.9731 309.5,34.5 Z"/></g>
<g><path style="opacity:0.502" fill="#081c2c" d="M 861.5,36.5 C 862.906,36.9731 863.573,37.9731 863.5,39.5C 862.094,39.0269 861.427,38.0269 861.5,36.5 Z"/></g>
<g><path style="opacity:0.502" fill="#071622" d="M 872.5,66.5 C 873.5,67.5 874.5,68.5 875.5,69.5C 874.5,69.5 873.5,69.5 872.5,69.5C 872.5,68.5 872.5,67.5 872.5,66.5 Z"/></g>
<g><path style="opacity:0.937" fill="#0f3352" d="M 226.5,104.5 C 225.089,106.914 223.089,108.581 220.5,109.5C 221.911,107.086 223.911,105.419 226.5,104.5 Z"/></g>
<g><path style="opacity:0.812" fill="#0e253b" d="M 208.5,121.5 C 208.573,123.027 207.906,124.027 206.5,124.5C 206.427,122.973 207.094,121.973 208.5,121.5 Z"/></g>
<g><path style="opacity:0.686" fill="#0c263b" d="M 200.5,131.5 C 200.573,133.027 199.906,134.027 198.5,134.5C 198.427,132.973 199.094,131.973 200.5,131.5 Z"/></g>
<g><path style="opacity:0.502" fill="#081d2c" d="M 890.5,136.5 C 892.027,136.427 893.027,137.094 893.5,138.5C 891.973,138.573 890.973,137.906 890.5,136.5 Z"/></g>
<g><path style="opacity:0.686" fill="#0c283f" d="M 972.5,135.5 C 973.906,135.973 974.573,136.973 974.5,138.5C 973.094,138.027 972.427,137.027 972.5,135.5 Z"/></g>
<g><path style="opacity:0.502" fill="#081a29" d="M 195.5,138.5 C 195.573,140.027 194.906,141.027 193.5,141.5C 193.427,139.973 194.094,138.973 195.5,138.5 Z"/></g>
<g><path style="opacity:0.686" fill="#0b263b" d="M 899.5,142.5 C 901.027,142.427 902.027,143.094 902.5,144.5C 900.973,144.573 899.973,143.906 899.5,142.5 Z"/></g>
<g><path style="opacity:0.502" fill="#081d2c" d="M 190.5,146.5 C 190.573,148.027 189.906,149.027 188.5,149.5C 188.427,147.973 189.094,146.973 190.5,146.5 Z"/></g>
<g><path style="opacity:0.502" fill="#081d2d" d="M 982.5,151.5 C 983.906,151.973 984.573,152.973 984.5,154.5C 983.094,154.027 982.427,153.027 982.5,151.5 Z"/></g>
<g><path style="opacity:0.502" fill="#012035" d="M 1003.5,221.5 C 1004.5,350.999 1004.83,480.666 1004.5,610.5C 985.167,610.5 965.833,610.5 946.5,610.5C 946.5,482.833 946.5,355.167 946.5,227.5C 947.5,354.666 947.833,481.999 947.5,609.5C 966.167,609.5 984.833,609.5 1003.5,609.5C 1003.5,480.167 1003.5,350.833 1003.5,221.5 Z"/></g>
<g><path style="opacity:1" fill="#032b42" d="M 679.5,490.5 C 695.503,490.667 711.503,490.5 727.5,490C 743.735,469.749 757.568,447.916 769,424.5C 774.984,409.951 776.651,394.951 774,379.5C 771.638,371.774 767.971,364.774 763,358.5C 751.489,344.98 737.322,335.48 720.5,330C 710.063,327.743 699.73,328.076 689.5,331C 679.609,334.612 670.276,339.279 661.5,345C 641.717,360.449 623.551,377.616 607,396.5C 600.291,403.544 593.291,410.211 586,416.5C 574.012,407.179 563.346,396.512 554,384.5C 538.379,368.463 521.545,353.963 503.5,341C 488.385,331.847 472.051,327.847 454.5,329C 434.248,334.578 417.748,345.745 405,362.5C 395.614,376.249 392.947,391.249 397,407.5C 399.026,414.939 401.359,422.272 404,429.5C 415.2,451.017 428.366,471.184 443.5,490C 458.163,490.5 472.83,490.667 487.5,490.5C 465.663,491.828 443.663,491.828 421.5,490.5C 406.455,471.088 393.955,450.088 384,427.5C 370.277,390.746 378.111,359.58 407.5,334C 439.849,306.142 474.515,303.142 511.5,325C 539.089,344.079 563.756,366.579 585.5,392.5C 601.656,374.177 618.989,357.011 637.5,341C 655.239,325.132 675.906,315.132 699.5,311C 723.657,309.385 744.657,316.719 762.5,333C 793.454,359.74 801.287,392.24 786,430.5C 776.107,451.967 763.94,471.967 749.5,490.5C 726.003,491.829 702.67,491.829 679.5,490.5 Z"/></g>
<g><path style="opacity:1" fill="#006cb6" d="M 679.5,490.5 C 670.882,476.771 661.882,463.271 652.5,450C 651.167,449.333 649.833,449.333 648.5,450C 640.708,472.544 633.041,495.044 625.5,517.5C 624.041,517.567 622.708,517.234 621.5,516.5C 617.606,508.341 613.606,500.174 609.5,492C 592.167,491.333 574.833,491.333 557.5,492C 553.221,500.32 549.221,508.82 545.5,517.5C 544.277,518.614 542.944,518.781 541.5,518C 534.141,496.256 526.974,474.423 520,452.5C 517.525,448.595 514.858,448.595 512,452.5C 504.072,465.365 495.905,478.032 487.5,490.5C 472.83,490.667 458.163,490.5 443.5,490C 428.366,471.184 415.2,451.017 404,429.5C 401.359,422.272 399.026,414.939 397,407.5C 392.947,391.249 395.614,376.249 405,362.5C 417.748,345.745 434.248,334.578 454.5,329C 472.051,327.847 488.385,331.847 503.5,341C 521.545,353.963 538.379,368.463 554,384.5C 563.346,396.512 574.012,407.179 586,416.5C 593.291,410.211 600.291,403.544 607,396.5C 623.551,377.616 641.717,360.449 661.5,345C 670.276,339.279 679.609,334.612 689.5,331C 699.73,328.076 710.063,327.743 720.5,330C 737.322,335.48 751.489,344.98 763,358.5C 767.971,364.774 771.638,371.774 774,379.5C 776.651,394.951 774.984,409.951 769,424.5C 757.568,447.916 743.735,469.749 727.5,490C 711.503,490.5 695.503,490.667 679.5,490.5 Z"/></g>
<g><path style="opacity:1" fill="#006bb5" d="M 658.5,472.5 C 658.427,474.027 659.094,475.027 660.5,475.5C 660.427,477.027 661.094,478.027 662.5,478.5C 662.427,480.027 663.094,481.027 664.5,481.5C 664.427,483.027 665.094,484.027 666.5,484.5C 667.89,485.899 668.89,487.566 669.5,489.5C 669.427,491.027 670.094,492.027 671.5,492.5C 671.427,494.027 672.094,495.027 673.5,495.5C 673.427,497.027 674.094,498.027 675.5,498.5C 689.797,499.449 704.131,499.782 718.5,499.5C 686.895,537.437 653.895,574.104 619.5,609.5C 597.164,609.667 574.831,609.5 552.5,609C 532.032,586.864 511.198,565.03 490,543.5C 477.267,528.941 464.767,514.275 452.5,499.5C 465.549,499.796 478.549,499.463 491.5,498.5C 492.906,498.027 493.573,497.027 493.5,495.5C 494.906,495.027 495.573,494.027 495.5,492.5C 496.906,492.027 497.573,491.027 497.5,489.5C 498.906,489.027 499.573,488.027 499.5,486.5C 500.11,484.566 501.11,482.899 502.5,481.5C 503.906,481.027 504.573,480.027 504.5,478.5C 505.906,478.027 506.573,477.027 506.5,475.5C 507.906,475.027 508.573,474.027 508.5,472.5C 509.906,472.027 510.573,471.027 510.5,469.5C 511.554,465.183 513.721,464.183 517,466.5C 524.132,489.562 531.465,512.562 539,535.5C 541.12,538.08 543.287,538.08 545.5,535.5C 550.705,523.592 556.038,511.759 561.5,500C 576.167,499.333 590.833,499.333 605.5,500C 610.962,511.759 616.295,523.592 621.5,535.5C 622.869,537.124 624.536,537.624 626.5,537C 635.111,513.834 642.944,490.334 650,466.5C 651.241,464.579 652.741,464.246 654.5,465.5C 656.11,467.725 657.443,470.059 658.5,472.5 Z"/></g>
<g><path style="opacity:0.749" fill="#0c3354" d="M 510.5,469.5 C 510.573,471.027 509.906,472.027 508.5,472.5C 508.427,470.973 509.094,469.973 510.5,469.5 Z"/></g>
<g><path style="opacity:0.686" fill="#0d2d4b" d="M 508.5,472.5 C 508.573,474.027 507.906,475.027 506.5,475.5C 506.427,473.973 507.094,472.973 508.5,472.5 Z"/></g>
<g><path style="opacity:0.749" fill="#0c3354" d="M 658.5,472.5 C 659.906,472.973 660.573,473.973 660.5,475.5C 659.094,475.027 658.427,474.027 658.5,472.5 Z"/></g>
<g><path style="opacity:0.561" fill="#0b253d" d="M 506.5,475.5 C 506.573,477.027 505.906,478.027 504.5,478.5C 504.427,476.973 505.094,475.973 506.5,475.5 Z"/></g>
<g><path style="opacity:0.686" fill="#0e2d4a" d="M 660.5,475.5 C 661.906,475.973 662.573,476.973 662.5,478.5C 661.094,478.027 660.427,477.027 660.5,475.5 Z"/></g>
<g><path style="opacity:0.561" fill="#0b2339" d="M 504.5,478.5 C 504.573,480.027 503.906,481.027 502.5,481.5C 502.427,479.973 503.094,478.973 504.5,478.5 Z"/></g>
<g><path style="opacity:0.561" fill="#0a233a" d="M 662.5,478.5 C 663.906,478.973 664.573,479.973 664.5,481.5C 663.094,481.027 662.427,480.027 662.5,478.5 Z"/></g>
<g><path style="opacity:0.502" fill="#0a2034" d="M 664.5,481.5 C 665.906,481.973 666.573,482.973 666.5,484.5C 665.094,484.027 664.427,483.027 664.5,481.5 Z"/></g>
<g><path style="opacity:0.749" fill="#0c3354" d="M 499.5,486.5 C 499.573,488.027 498.906,489.027 497.5,489.5C 497.427,487.973 498.094,486.973 499.5,486.5 Z"/></g>
<g><path style="opacity:0.686" fill="#0b2e4c" d="M 497.5,489.5 C 497.573,491.027 496.906,492.027 495.5,492.5C 495.427,490.973 496.094,489.973 497.5,489.5 Z"/></g>
<g><path style="opacity:0.749" fill="#0c3354" d="M 669.5,489.5 C 670.906,489.973 671.573,490.973 671.5,492.5C 670.094,492.027 669.427,491.027 669.5,489.5 Z"/></g>
<g><path style="opacity:1" fill="#013d5a" d="M 722.5,792.5 C 718.5,792.5 714.5,792.5 710.5,792.5C 705.355,789.273 701.855,784.607 700,778.5C 683.488,740.812 666.988,703.145 650.5,665.5C 626.843,664.167 602.843,663.5 578.5,663.5C 554.157,663.5 530.157,664.167 506.5,665.5C 489.103,705.517 471.603,745.517 454,785.5C 451.985,788.412 449.485,790.745 446.5,792.5C 442.5,792.5 438.5,792.5 434.5,792.5C 431.528,790.359 429.028,787.692 427,784.5C 402.518,706.556 377.352,628.889 351.5,551.5C 347.797,548.907 344.63,549.573 342,553.5C 318.788,590.095 294.955,626.262 270.5,662C 268.975,663.009 267.308,663.509 265.5,663.5C 177.833,663.5 90.1667,663.5 2.5,663.5C 2.5,654.167 2.5,644.833 2.5,635.5C 86.6683,635.833 170.668,635.499 254.5,634.5C 283.417,589.068 312.584,543.734 342,498.5C 347.95,492.31 354.784,491.144 362.5,495C 365.106,496.938 366.939,499.438 368,502.5C 391.535,575.438 414.868,648.438 438,721.5C 441.307,726.298 444.974,726.631 449,722.5C 460.528,696.916 471.861,671.25 483,645.5C 485.256,640.243 489.09,636.743 494.5,635C 550.5,634.333 606.5,634.333 662.5,635C 668.974,636.807 673.14,640.974 675,647.5C 685.725,672.617 696.725,697.617 708,722.5C 710.679,725.835 713.845,726.335 717.5,724C 741.713,650.325 765.546,576.492 789,502.5C 793.298,493.71 800.132,490.877 809.5,494C 811.624,495.122 813.457,496.622 815,498.5C 844.167,543.5 873.333,588.5 902.5,633.5C 991.498,634.5 1080.5,634.833 1169.5,634.5C 1169.5,644.5 1169.5,654.5 1169.5,664.5C 1076.83,664.667 984.166,664.5 891.5,664C 887.934,663.3 885.1,661.467 883,658.5C 860.084,623.67 837.418,588.67 815,553.5C 811.333,548.167 807.667,548.167 804,553.5C 779.132,630.438 754.465,707.438 730,784.5C 727.972,787.692 725.472,790.359 722.5,792.5 Z"/></g>
<g><path style="opacity:0.624" fill="#0c2944" d="M 495.5,492.5 C 495.573,494.027 494.906,495.027 493.5,495.5C 493.427,493.973 494.094,492.973 495.5,492.5 Z"/></g>
<g><path style="opacity:0.686" fill="#0d2d4b" d="M 671.5,492.5 C 672.906,492.973 673.573,493.973 673.5,495.5C 672.094,495.027 671.427,494.027 671.5,492.5 Z"/></g>
<g><path style="opacity:0.624" fill="#0c2640" d="M 493.5,495.5 C 493.573,497.027 492.906,498.027 491.5,498.5C 491.427,496.973 492.094,495.973 493.5,495.5 Z"/></g>
<g><path style="opacity:0.624" fill="#0c2944" d="M 673.5,495.5 C 674.906,495.973 675.573,496.973 675.5,498.5C 674.094,498.027 673.427,497.027 673.5,495.5 Z"/></g>
<g><path style="opacity:1" fill="#032b42" d="M 452.5,499.5 C 464.767,514.275 477.267,528.941 490,543.5C 511.198,565.03 532.032,586.864 552.5,609C 574.831,609.5 597.164,609.667 619.5,609.5C 619.5,609.833 619.5,610.167 619.5,610.5C 588.165,610.667 556.832,610.5 525.5,610C 492.795,573.63 460.461,536.963 428.5,500C 436.493,499.5 444.493,499.334 452.5,499.5 Z"/></g>
<g><path style="opacity:1" fill="#032b41" d="M 718.5,499.5 C 726.507,499.334 734.507,499.5 742.5,500C 710.539,536.963 678.205,573.63 645.5,610C 636.84,610.5 628.173,610.666 619.5,610.5C 619.5,610.167 619.5,609.833 619.5,609.5C 653.895,574.104 686.895,537.437 718.5,499.5 Z"/></g>
<g><path style="opacity:0.749" fill="#082944" d="M 621.5,516.5 C 622.708,517.234 624.041,517.567 625.5,517.5C 625.083,518.124 624.416,518.457 623.5,518.5C 622.287,518.253 621.62,517.586 621.5,516.5 Z"/></g>
<g><path style="opacity:0.502" fill="#02111a" d="M 166.5,224.5 C 166.5,352.833 166.5,481.167 166.5,609.5C 185.5,609.5 204.5,609.5 223.5,609.5C 204.341,610.497 185.007,610.83 165.5,610.5C 165.167,481.666 165.5,352.999 166.5,224.5 Z"/></g>
<g><path style="opacity:0.502" fill="#000e15" d="M 254.5,634.5 C 170.668,635.499 86.6683,635.833 2.5,635.5C 2.5,644.833 2.5,654.167 2.5,663.5C 90.1667,663.5 177.833,663.5 265.5,663.5C 177.668,664.499 89.6682,664.833 1.5,664.5C 1.5,654.5 1.5,644.5 1.5,634.5C 85.8333,634.5 170.167,634.5 254.5,634.5 Z"/></g>
<g><path style="opacity:0.502" fill="#001018" d="M 650.5,665.5 C 602.5,664.167 554.5,664.167 506.5,665.5C 530.157,664.167 554.157,663.5 578.5,663.5C 602.843,663.5 626.843,664.167 650.5,665.5 Z"/></g>
</svg>
